<mxfile host="app.diagrams.net" modified="2024-03-28T08:26:03.786Z" agent="Mozilla/5.0 (Macintosh; Intel Mac OS X 10_15_7) AppleWebKit/537.36 (KHTML, like Gecko) Chrome/123.0.0.0 Safari/537.36" version="22.1.18" etag="Xu08Ip7SsCWeS8YIS73D" type="github">
  <diagram name="第 1 页" id="Jz2ggFBp5CSgMdpqjL7a">
    <mxGraphModel>
      <root>
        <mxCell id="0" />
        <mxCell id="1" parent="0" />
      </root>
    </mxGraphModel>
  </diagram>
</mxfile>
